# xmcd
# Track frame offsets:
# 182
# 12187
# 24860
# 35702
# 47067
# 59480
# 71212
# 82770
# 93260
# 106035
# 117350
# 128402
# 139407
# 151032
# 161785
# 173745
# 185750
# 196630
# 209380
# 223417
# 235757
# 247117
# 261467
# 273115
#
# Disc length: 3708 seconds
# Revision: 0
# Processed by: cddbd v1.4PL0 Copyright (c) Steve Scherf et al.
# Submitted via: VisiTrax 2.9.5.180 - For more info visit www.synapsa.com
#
DISCID=510e7a18
DTITLE=Jim Reeves - Mexican Joe
DYEAR=1993
DGENRE=
TTITLE0=Mexican JOe
TTITLE1=Bimbo
TTITLE2=Then I'll stop loving you
TTITLE3=Penny cand
TTITLE4=Drinking tquila
TTITLE5=I'll follow you
TTITLE6=Give me one more kiss
TTITLE7=Hillbilly waltz
TTITLE8=Butterfly love
TTITLE9=It's hard to love just one
TTITLE10=Gypsy heart
TTITLE11=red eyed and rowdy
TTITLE12=Are you the one
TTITLE13=Let me remember (things I can't forget)
TTITLE14=How many
TTITLE15=Padre of old San Antone
TTITLE16=My rambling heart
TTITLE17=Echo Bonita
TTITLE18=Each beat of my heart
TTITLE19=Let me love you just a little
TTITLE20=Wagon load of love
TTITLE21=You're the sweetest thing
TTITLE22=Whispering willow
TTITLE23=I'll always love you
EXTD=
EXTT0=
EXTT1=
EXTT2=
EXTT3=
EXTT4=
EXTT5=
EXTT6=
EXTT7=
EXTT8=
EXTT9=
EXTT10=
EXTT11=
EXTT12=
EXTT13=
EXTT14=
EXTT15=
EXTT16=
EXTT17=
EXTT18=
EXTT19=
EXTT20=
EXTT21=
EXTT22=
EXTT23=
PLAYORDER=
